<?xml version="1.0" encoding="UTF-8"?>
<svg width="32px" height="32px" viewBox="0 0 32 32" version="1.1" xmlns="http://www.w3.org/2000/svg" xmlns:xlink="http://www.w3.org/1999/xlink">
    <title>Atom/Icon/Web/ContentNavigation/Navigation/Arrow/Down</title>
    <g id="Atom/Icon/Web/ContentNavigation/Navigation/Arrow/Down" stroke="none" stroke-width="1" fill-rule="evenodd">
        <g id="arrow-down-signs">
            <rect id="Rectangle" x="0" y="0" width="32" height="32" fill="none"></rect>
            <path d="M15.6956113,23.7792565 L10.1674414,18.2510865 C10.0558138,18.1394589 10,17.9999244 10,17.8603899 C10,17.7208555 10.0558138,17.5720187 10.1674414,17.4696934 C10.3813942,17.2557405 10.7348816,17.2557405 10.9581367,17.4696934 L15.5812861,22.0928428 L15.5812861,8.55813791 C15.5812861,8.25116206 15.8324482,8 16.139424,8 C16.4463999,8 16.6975619,8.25116206 16.6975619,8.55813791 L16.6975619,22.0930288 L21.3301996,17.4603911 C21.5441525,17.2464382 21.8976398,17.2464382 22.120895,17.4603911 C22.3441502,17.674344 22.3348479,18.0278313 22.120895,18.2510865 L16.5395159,23.8324656 C16.5133764,23.8586051 16.4851905,23.8814887 16.4554231,23.9012096 C16.3654699,23.963442 16.25654,24 16.139424,24 C15.9589594,24 15.7978436,23.9131165 15.6956113,23.7792565 Z" id="Path"></path>
        </g>
    </g>
</svg>
